<mxfile host="app.diagrams.net" modified="2023-09-25T11:12:55.725Z" agent="Mozilla/5.0 (Windows NT 10.0; Win64; x64) AppleWebKit/537.36 (KHTML, like Gecko) Chrome/117.0.0.0 Safari/537.36 Edg/117.0.2045.36" etag="HNoo_hZM6BL8etnpT5X_" version="21.7.5" type="github">
  <diagram name="Page-1" id="c7558073-3199-34d8-9f00-42111426c3f3">
    <mxGraphModel dx="1922" dy="586" grid="1" gridSize="10" guides="1" tooltips="1" connect="1" arrows="1" fold="1" page="1" pageScale="1" pageWidth="826" pageHeight="1169" background="none" math="0" shadow="0">
      <root>
        <mxCell id="0" />
        <mxCell id="1" parent="0" />
        <mxCell id="3" value="Server" style="whiteSpace=wrap;align=right;verticalAlign=bottom;fontStyle=1;strokeWidth=3;fillColor=#FFFFCC;horizontal=1;labelPosition=left;verticalLabelPosition=top;" parent="1" vertex="1">
          <mxGeometry x="-40" y="100" width="600" height="220" as="geometry" />
        </mxCell>
        <mxCell id="4" value="Database EPS, Team , Jos Geenacker&#xa;&quot;SELECT * FROM &quot;" style="whiteSpace=wrap;align=center;verticalAlign=middle;fontStyle=1;strokeWidth=3;fillColor=#FFFFCC" parent="1" vertex="1">
          <mxGeometry x="40" y="120" width="440" height="60" as="geometry" />
        </mxCell>
        <mxCell id="5" value="KantoorBuDi" style="shape=process;whiteSpace=wrap;align=center;verticalAlign=middle;size=0.0475;fontStyle=1;strokeWidth=3;fillColor=#FFCCCC" parent="1" vertex="1">
          <mxGeometry x="-40" y="460" width="600" height="50" as="geometry" />
        </mxCell>
        <mxCell id="G2YasccpX_roE143owSL-101" value="" style="edgeStyle=none;noEdgeStyle=1;strokeColor=#990000;strokeWidth=2;startArrow=classic;startFill=1;endArrow=none;endFill=0;exitX=0.265;exitY=1.002;exitDx=0;exitDy=0;exitPerimeter=0;entryX=0.222;entryY=-0.008;entryDx=0;entryDy=0;entryPerimeter=0;" edge="1" parent="1" source="3" target="5">
          <mxGeometry width="100" height="100" relative="1" as="geometry">
            <mxPoint x="255" y="320" as="sourcePoint" />
            <mxPoint x="698.3333333333335" y="350" as="targetPoint" />
          </mxGeometry>
        </mxCell>
        <mxCell id="G2YasccpX_roE143owSL-103" value="Text" style="edgeLabel;html=1;align=center;verticalAlign=middle;resizable=0;points=[];" vertex="1" connectable="0" parent="G2YasccpX_roE143owSL-101">
          <mxGeometry x="-0.0235" y="-2" relative="1" as="geometry">
            <mxPoint as="offset" />
          </mxGeometry>
        </mxCell>
        <mxCell id="G2YasccpX_roE143owSL-111" value="userid+password, see PSONO,&lt;br style=&quot;border-color: var(--border-color); padding: 0px; margin: 0px; font-size: 12px; background-color: rgb(251, 251, 251);&quot;&gt;&lt;span style=&quot;font-size: 12px; background-color: rgb(251, 251, 251);&quot;&gt;COOKVMarktmutatieenMetercontrolebeheer&lt;/span&gt;&lt;br style=&quot;border-color: var(--border-color); padding: 0px; margin: 0px; font-size: 12px; background-color: rgb(251, 251, 251);&quot;&gt;folder &quot;&lt;span style=&quot;font-size: 12px; background-color: rgb(251, 251, 251);&quot;&gt;Connecties met externe systemen&quot;&lt;/span&gt;&lt;br style=&quot;border-color: var(--border-color); padding: 0px; margin: 0px; font-size: 12px; background-color: rgb(251, 251, 251);&quot;&gt;folder &quot;&lt;span style=&quot;font-size: 12px; background-color: rgb(251, 251, 251);&quot;&gt;CDWH - het SAP landschap van EDP&quot;&lt;/span&gt;&lt;br style=&quot;border-color: var(--border-color); padding: 0px; margin: 0px; font-size: 12px; background-color: rgb(251, 251, 251);&quot;&gt;&lt;span style=&quot;font-size: 12px; background-color: rgb(251, 251, 251);&quot;&gt;Key-value &#39;Jdbc verbinding om orders op te halen.&#39;&lt;/span&gt;" style="edgeLabel;html=1;align=center;verticalAlign=middle;resizable=0;points=[];" vertex="1" connectable="0" parent="G2YasccpX_roE143owSL-101">
          <mxGeometry x="0.002" y="-4" relative="1" as="geometry">
            <mxPoint as="offset" />
          </mxGeometry>
        </mxCell>
        <mxCell id="G2YasccpX_roE143owSL-104" value="" style="edgeStyle=none;noEdgeStyle=1;strokeColor=#990000;strokeWidth=2;startArrow=classic;startFill=1;endArrow=none;endFill=0;exitX=0.25;exitY=1;exitDx=0;exitDy=0;entryX=0.265;entryY=1.009;entryDx=0;entryDy=0;entryPerimeter=0;" edge="1" parent="1" source="4" target="3">
          <mxGeometry width="100" height="100" relative="1" as="geometry">
            <mxPoint x="252.94235294117658" y="140" as="sourcePoint" />
            <mxPoint x="160" y="320" as="targetPoint" />
            <Array as="points" />
          </mxGeometry>
        </mxCell>
        <mxCell id="G2YasccpX_roE143owSL-105" value="Username, database, schema en warehouse, see PSONO,&lt;br style=&quot;border-color: var(--border-color); padding: 0px; margin: 0px; font-size: 12px; background-color: rgb(251, 251, 251);&quot;&gt;&lt;span style=&quot;font-size: 12px; background-color: rgb(251, 251, 251);&quot;&gt;Datastore &quot;COOKVMarktmutatieenMetercontrolebeheer&quot;&lt;/span&gt;&lt;br style=&quot;border-color: var(--border-color); padding: 0px; margin: 0px; font-size: 12px; background-color: rgb(251, 251, 251);&quot;&gt;&lt;span style=&quot;font-size: 12px; background-color: rgb(251, 251, 251);&quot;&gt;folder &quot;Connecties met externe systemen&quot;&lt;/span&gt;&lt;br style=&quot;border-color: var(--border-color); padding: 0px; margin: 0px; font-size: 12px; background-color: rgb(251, 251, 251);&quot;&gt;folder &quot;&lt;span style=&quot;font-size: 12px; background-color: rgb(251, 251, 251);&quot;&gt;CDWH - het SAP landschap van EDP&quot;&lt;/span&gt;&lt;br style=&quot;border-color: var(--border-color); padding: 0px; margin: 0px; font-size: 12px; background-color: rgb(251, 251, 251);&quot;&gt;&lt;span style=&quot;font-size: 12px; background-color: rgb(251, 251, 251);&quot;&gt;Key-value &#39;Database verbinding om orders op te halen.&#39;&lt;/span&gt;" style="edgeLabel;html=1;align=center;verticalAlign=middle;resizable=0;points=[];" vertex="1" connectable="0" parent="G2YasccpX_roE143owSL-104">
          <mxGeometry x="-0.0235" y="-2" relative="1" as="geometry">
            <mxPoint x="17" y="-13" as="offset" />
          </mxGeometry>
        </mxCell>
      </root>
    </mxGraphModel>
  </diagram>
</mxfile>
